<svg viewBox="0 0 160 112"
	stroke-linecap="square" xmlns="http://www.w3.org/2000/svg">
<defs>
<radialGradient id="rgb4i" cx="33%" cy="33%" r="50%">
<stop stop-color="#999" offset="0"/>
<stop stop-color="#333" offset="0.5"/>
<stop stop-color="#000" offset="1"/>
</radialGradient>
<radialGradient id="rgw4i" cx="33%" cy="33%" r="100%">
<stop stop-color="#fff" offset="0"/>
<stop stop-color="#ccc" offset="0.5"/>
<stop stop-color="#333" offset="1"/>
</radialGradient>
</defs>
<g transform="translate(0,10)">
<ellipse cx="80" cy="40" rx="80" ry="40" fill="url(#rgw4i)"/>
<circle cx="40" cy="40" r="20" fill="url(#rgw4i)"/>
<circle cx="120" cy="40" r="20" fill="url(#rgw4i)"/>
<circle cx="40" cy="40" r="10" fill="url(#rgb4i)"/>
<circle cx="120" cy="40" r="10" fill="url(#rgb4i)"/>
</g>
<g stroke="#000" stroke-width="1" fill="none" stroke-linecap="round">
<line x1="80" y1="9" x2="80" y2="1"/>
<line x1="80" y1="9" x2="70" y2="1"/>
<line x1="80" y1="9" x2="90" y2="1"/>
<line x1="30" y1="111" x2="50" y2="111"/>
<line x1="50" y1="111" x2="30" y2="100"/>
<line x1="30" y1="100" x2="50" y2="89"/>
<line x1="130" y1="111" x2="110" y2="111"/>
<line x1="110" y1="111" x2="130" y2="100"/>
<line x1="130" y1="100" x2="110" y2="89"/>
<path d="M 60 70 A 3 1, 180, 0 0, 100 70"/>
</g>
</svg>